<svg id="Capa_1" enable-background="new 0 0 512 512" height="512" viewBox="0 0 512 512" width="512" xmlns="http://www.w3.org/2000/svg"><g><path d="m512 228c0-12.615-5.146-24.497-14.492-33.456-9.112-8.733-21.012-13.544-33.508-13.544h-369v-83.18c0-14.892 5.256-28.83 14.797-39.243 9.209-10.045 21.356-15.577 34.203-15.577 23.53 0 41.267 13.405 47.011 34h-7.011c-8.284 0-15 6.716-15 15s6.716 15 15 15h48c8.284 0 15-6.716 15-15s-6.716-15-15-15h-10.304c-2.862-16.392-10.422-31.054-22.022-42.252-14.528-14.024-34.3-21.748-55.674-21.748-21.356 0-41.356 8.986-56.319 25.308-14.626 15.963-22.681 37.098-22.681 59.512v83.18h-17c-12.496 0-24.396 4.811-33.508 13.544-9.346 8.959-14.492 20.841-14.492 33.456s5.146 24.497 14.492 33.456c5.354 5.131 11.674 8.896 18.508 11.139v88.464c0 43.358 26.417 80.66 64 96.662v26.279c0 8.284 6.716 15 15 15s15-6.716 15-15v-18.517c3.616.378 7.285.575 11 .575h236c3.715 0 7.384-.197 11-.575v18.517c0 8.284 6.716 15 15 15s15-6.716 15-15v-26.279c37.583-16.002 64-53.304 64-96.662v-88.464c6.834-2.243 13.154-6.007 18.508-11.139 9.346-8.959 14.492-20.841 14.492-33.456zm-63 133.059c0 41.355-33.645 75-75 75h-236c-41.355 0-75-33.645-75-75v-86.059h386zm15-116.059h-416c-9.589 0-18-7.944-18-17s8.411-17 18-17h416c9.589 0 18 7.944 18 17s-8.411 17-18 17z"/></g></svg>