<?xml version="1.0" encoding="utf-8"?>
<!-- Generator: Adobe Illustrator 24.1.1, SVG Export Plug-In . SVG Version: 6.00 Build 0)  -->
<svg version="1.1" id="Layer_1" xmlns="http://www.w3.org/2000/svg" xmlns:xlink="http://www.w3.org/1999/xlink" x="0px" y="0px"
	 viewBox="0 0 448 512" style="enable-background:new 0 0 448 512;" xml:space="preserve">
<path d="M227.1,141c-63.6,0-114.9,51.3-114.9,114.9s51.3,114.9,114.9,114.9S342,319.5,342,255.9S290.7,141,227.1,141z M227.1,330.6
	c-41.1,0-74.7-33.5-74.7-74.7s33.5-74.7,74.7-74.7s74.7,33.5,74.7,74.7S268.2,330.6,227.1,330.6L227.1,330.6z M373.5,136.3
	c0,14.9-12,26.8-26.8,26.8c-14.9,0-26.8-12-26.8-26.8s12-26.8,26.8-26.8S373.5,121.5,373.5,136.3z M449.6,163.5
	c-1.7-35.9-9.9-67.7-36.2-93.9c-26.2-26.2-58-34.4-93.9-36.2c-37-2.1-147.9-2.1-184.9,0C98.8,35.1,67,43.3,40.7,69.5
	s-34.4,58-36.2,93.9c-2.1,37-2.1,147.9,0,184.9c1.7,35.9,9.9,67.7,36.2,93.9s58,34.4,93.9,36.2c37,2.1,147.9,2.1,184.9,0
	c35.9-1.7,67.7-9.9,93.9-36.2c26.2-26.2,34.4-58,36.2-93.9C451.7,311.3,451.7,200.5,449.6,163.5L449.6,163.5z M401.8,388
	c-7.8,19.6-22.9,34.7-42.6,42.6c-29.5,11.7-99.5,9-132.1,9s-102.7,2.6-132.1-9c-19.6-7.8-34.7-22.9-42.6-42.6
	c-11.7-29.5-9-99.5-9-132.1s-2.6-102.7,9-132.1c7.8-19.6,22.9-34.7,42.6-42.6c29.5-11.7,99.5-9,132.1-9s102.7-2.6,132.1,9
	c19.6,7.8,34.7,22.9,42.6,42.6c11.7,29.5,9,99.5,9,132.1S413.5,358.6,401.8,388z"/>
</svg>
